<?xml version="1.0" encoding="iso-8859-1"?>
<!-- Generator: Adobe Illustrator 19.0.0, SVG Export Plug-In . SVG Version: 6.00 Build 0)  -->
<svg version="1.1" id="Capa_1" xmlns="http://www.w3.org/2000/svg" xmlns:xlink="http://www.w3.org/1999/xlink" x="0px" y="0px"
	 viewBox="0 0 512.023 512.023" style="enable-background:new 0 0 512.023 512.023;" xml:space="preserve">
<g transform="translate(-1 -1)">
	<g>
		<path style="fill:#CBB292;" d="M257.011,261.172c-4.875,0-8.828-3.952-8.828-8.828V71.643c0-4.875,3.952-8.828,8.828-8.828
			s8.828,3.952,8.828,8.828v180.701C265.839,257.219,261.887,261.172,257.011,261.172z"/>
		<path style="fill:#CBB292;" d="M142.429,294.187c-4.875,0-8.828-3.952-8.828-8.828V110.97c0-4.875,3.952-8.828,8.828-8.828
			s8.828,3.952,8.828,8.828v174.389C151.257,290.234,147.305,294.187,142.429,294.187z"/>
		<path style="fill:#CBB292;" d="M371.593,294.187c-4.875,0-8.828-3.952-8.828-8.828V110.97c0-4.875,3.952-8.828,8.828-8.828
			s8.828,3.952,8.828,8.828v174.389C380.421,290.234,376.469,294.187,371.593,294.187z"/>
	</g>
	<g>
		<rect x="230.529" y="362.954" style="fill:#805333;" width="52.966" height="84.303"/>
		<path style="fill:#805333;" d="M318.363,471.356l100.546-35.31c11.246-4.289,17.232-16.571,13.683-28.072l-34.163-117.407
			c-1.503-5.586-5.205-10.326-10.262-13.137s-11.036-3.454-16.574-1.782c-11.433,4.2-17.594,16.6-14.036,28.248l27.983,96.309
			l-82.714,29.131c-2.522,0.826-4.839,2.18-6.797,3.972h-78.036c-1.958-1.792-4.275-3.146-6.797-3.972l-82.714-29.131l27.983-96.309
			c3.558-11.649-2.603-24.048-14.036-28.248c-5.538-1.672-11.518-1.029-16.574,1.782s-8.758,7.55-10.262,13.137L81.431,407.974
			c-3.549,11.501,2.437,23.782,13.683,28.072l100.546,35.31"/>
		<path style="fill:#805333;" d="M197.796,62.816l-87.322,27.277c-8.346,2.592-13.54,10.9-12.215,19.539s8.772,15.007,17.511,14.977
			c1.795-0.004,3.579-0.272,5.297-0.794l135.945-42.461l59.251-18.538l87.287-27.277c9.312-2.925,14.489-12.845,11.564-22.157
			c-2.925-9.312-12.845-14.489-22.157-11.564L257.011,44.278L197.796,62.816z"/>
	</g>
	<g>
		<path style="fill:#CB8252;" d="M398.253,124.609c-1.797,0-3.583-0.274-5.297-0.812L110.473,35.521
			c-9.305-2.925-14.476-12.839-11.551-22.144s12.839-14.476,22.144-11.551l282.483,88.276c8.331,2.603,13.51,10.903,12.186,19.53
			C414.411,118.26,406.981,124.624,398.253,124.609z"/>
		<path style="fill:#CB8252;" d="M195.218,513.023v-35.31c0-29.252,23.713-52.966,52.966-52.966h17.655
			c29.252,0,52.966,23.713,52.966,52.966v35.31H195.218z"/>
		<path style="fill:#CB8252;" d="M318.804,309.988c0,39-22.793,79.448-61.793,79.448s-61.793-40.448-61.793-79.448
			s17.655-61.793,61.793-61.793S318.804,270.988,318.804,309.988z"/>
	</g>
</g>
<g>
</g>
<g>
</g>
<g>
</g>
<g>
</g>
<g>
</g>
<g>
</g>
<g>
</g>
<g>
</g>
<g>
</g>
<g>
</g>
<g>
</g>
<g>
</g>
<g>
</g>
<g>
</g>
<g>
</g>
</svg>
