<?xml version="1.0" encoding="UTF-8" standalone="no"?>
<svg
   xmlns:dc="http://purl.org/dc/elements/1.1/"
   xmlns:cc="http://creativecommons.org/ns#"
   xmlns:rdf="http://www.w3.org/1999/02/22-rdf-syntax-ns#"
   xmlns:svg="http://www.w3.org/2000/svg"
   xmlns="http://www.w3.org/2000/svg"
   xmlns:sodipodi="http://sodipodi.sourceforge.net/DTD/sodipodi-0.dtd"
   xmlns:inkscape="http://www.inkscape.org/namespaces/inkscape"
   inkscape:version="1.0 (4035a4fb49, 2020-05-01)"
   sodipodi:docname="1036794.svg"
   xml:space="preserve"
   style="enable-background:new 0 0 512.023 512.023;"
   viewBox="0 0 512.023 512.023"
   y="0px"
   x="0px"
   id="Capa_1"
   version="1.1"><metadata
   id="metadata134"><rdf:RDF><cc:Work
       rdf:about=""><dc:format>image/svg+xml</dc:format><dc:type
         rdf:resource="http://purl.org/dc/dcmitype/StillImage" /></cc:Work></rdf:RDF></metadata><defs
   id="defs132" /><sodipodi:namedview
   inkscape:current-layer="Capa_1"
   inkscape:window-maximized="1"
   inkscape:window-y="-8"
   inkscape:window-x="-8"
   inkscape:cy="300.98759"
   inkscape:cx="203.24638"
   inkscape:zoom="0.70710678"
   inkscape:snap-nodes="true"
   inkscape:object-paths="false"
   showgrid="false"
   id="namedview130"
   inkscape:window-height="1131"
   inkscape:window-width="1920"
   inkscape:pageshadow="2"
   inkscape:pageopacity="0"
   guidetolerance="10"
   gridtolerance="10"
   objecttolerance="10"
   borderopacity="1"
   bordercolor="#666666"
   pagecolor="#ffffff" />
<rect
   inkscape:label="Background"
   ry="12"
   rx="12"
   y="9"
   x="9"
   height="494"
   width="494"
   id="rect152"
   style="fill:#2e856c;stroke:#28b26f;stroke-width:18;stroke-miterlimit:4;stroke-dasharray:none;fill-opacity:1;stroke-opacity:1;stroke-linejoin:round" /><g
   inkscape:label="g97"
   id="g97"
   transform="translate(-1,-19)">
	<g
   transform="matrix(1,0,0,0.74538961,0,72.903066)"
   id="g79">
		<path
   id="path73"
   d="m 257.011,261.172 c -4.875,0 -8.828,-3.952 -8.828,-8.828 V 71.643 c 0,-4.875 3.952,-8.828 8.828,-8.828 4.876,0 8.828,3.952 8.828,8.828 v 180.701 c 0,4.875 -3.952,8.828 -8.828,8.828 z"
   style="fill:#cbb292" />
		<path
   id="path75"
   d="m 142.429,294.187 c -4.875,0 -8.828,-3.952 -8.828,-8.828 V 110.97 c 0,-4.875 3.952,-8.828 8.828,-8.828 4.876,0 8.828,3.952 8.828,8.828 v 174.389 c 0,4.875 -3.952,8.828 -8.828,8.828 z"
   style="fill:#cbb292" />
		<path
   id="path77"
   d="m 371.593,294.187 c -4.875,0 -8.828,-3.952 -8.828,-8.828 V 110.97 c 0,-4.875 3.952,-8.828 8.828,-8.828 4.876,0 8.828,3.952 8.828,8.828 v 174.389 c 0,4.875 -3.952,8.828 -8.828,8.828 z"
   style="fill:#cbb292" />
	</g>
	<g
   id="g87">
		<rect
   id="rect81"
   height="84.303001"
   width="52.966"
   style="fill:#805333"
   y="362.95401"
   x="230.52901" />
		<path
   id="path83"
   d="m 318.363,471.356 100.546,-35.31 c 11.246,-4.289 17.232,-16.571 13.683,-28.072 L 398.429,290.567 c -1.503,-5.586 -5.205,-10.326 -10.262,-13.137 -5.057,-2.811 -11.036,-3.454 -16.574,-1.782 -11.433,4.2 -17.594,16.6 -14.036,28.248 l 27.983,96.309 -82.714,29.131 c -2.522,0.826 -4.839,2.18 -6.797,3.972 h -78.036 c -1.958,-1.792 -4.275,-3.146 -6.797,-3.972 l -82.714,-29.131 27.983,-96.309 c 3.558,-11.649 -2.603,-24.048 -14.036,-28.248 -5.538,-1.672 -11.518,-1.029 -16.574,1.782 -5.056,2.811 -8.758,7.55 -10.262,13.137 L 81.431,407.974 c -3.549,11.501 2.437,23.782 13.683,28.072 l 100.546,35.31"
   style="fill:#805333" />
		<path
   id="path85"
   d="m 197.796,106.816 -87.322,27.277 c -8.346,2.592 -13.54,10.9 -12.215,19.539 1.325,8.639 8.772,15.007 17.511,14.977 1.795,-0.004 3.579,-0.272 5.297,-0.794 l 135.945,-42.461 59.251,-18.538 87.287,-27.277 c 9.312,-2.925 14.489,-12.845 11.564,-22.157 -2.925,-9.312 -12.845,-14.489 -22.157,-11.564 l -135.946,42.46 z"
   style="fill:#805333" />
	</g>
	<g
   id="g95">
		<path
   id="path89"
   d="m 398.253,168.609 c -1.797,0 -3.583,-0.274 -5.297,-0.812 L 110.473,79.521 C 101.168,76.596 95.997,66.682 98.922,57.377 c 2.925,-9.305 12.839,-14.476 22.144,-11.551 l 282.483,88.276 c 8.331,2.603 13.51,10.903 12.186,19.53 -1.324,8.628 -8.754,14.992 -17.482,14.977 z"
   style="fill:#cb8252" />
		<path
   id="path91"
   d="m 195.218,513.023 v -35.31 c 0,-29.252 23.713,-52.966 52.966,-52.966 h 17.655 c 29.252,0 52.966,23.713 52.966,52.966 v 35.31 z"
   style="fill:#cb8252" />
		<path
   id="path93"
   d="m 318.804,309.988 c 0,39 -22.793,79.448 -61.793,79.448 -39,0 -61.793,-40.448 -61.793,-79.448 0,-39 17.655,-61.793 61.793,-61.793 44.138,0 61.793,22.793 61.793,61.793 z"
   style="fill:#cb8252" />
	</g>
</g>
<g
   transform="translate(0,-18)"
   id="g99">
</g>
<g
   transform="translate(0,-18)"
   id="g101">
</g>
<g
   transform="translate(0,-18)"
   id="g103">
</g>
<g
   transform="translate(0,-18)"
   id="g105">
</g>
<g
   transform="translate(0,-18)"
   id="g107">
</g>
<g
   transform="translate(0,-18)"
   id="g109">
</g>
<g
   transform="translate(0,-18)"
   id="g111">
</g>
<g
   transform="translate(0,-18)"
   id="g113">
</g>
<g
   transform="translate(0,-18)"
   id="g115">
</g>
<g
   transform="translate(0,-18)"
   id="g117">
</g>
<g
   transform="translate(0,-18)"
   id="g119">
</g>
<g
   transform="translate(0,-18)"
   id="g121">
</g>
<g
   transform="translate(0,-18)"
   id="g123">
</g>
<g
   transform="translate(0,-18)"
   id="g125">
</g>
<g
   transform="translate(0,-18)"
   id="g127">
</g>
</svg>
